<svg width="81" height="80" viewBox="0 0 81 80" fill="none" xmlns="http://www.w3.org/2000/svg">
<circle cx="40.6929" cy="40" r="39.2205" stroke="black" stroke-width="1.55906"/>
<path d="M28.3463 40.2686C28.2354 40.2686 28.124 40.2329 28.031 40.1624C27.9826 40.1251 23.1559 36.4381 18.7896 32.0718C17.5646 30.847 16.8896 29.2184 16.8896 27.486C16.8896 25.7535 17.5646 24.1246 18.7896 22.8995C20.0142 21.6744 21.6431 21 23.3757 21C25.1077 21 26.7362 21.6744 27.9612 22.8995C28.0951 23.0333 28.2237 23.1736 28.3463 23.32C28.469 23.1734 28.5976 23.033 28.7314 22.8995C29.9565 21.6744 31.5852 21 33.3175 21C35.0498 21 36.6785 21.6744 37.9036 22.8995C40.4321 25.4291 40.4316 29.5438 37.903 32.0718C33.5365 36.4384 28.7098 40.1254 28.6617 40.1624C28.5687 40.2329 28.4573 40.2686 28.3463 40.2686ZM23.3757 22.0415C21.9212 22.0415 20.5542 22.6076 19.526 23.6358C18.4978 24.6646 17.9312 26.0316 17.9312 27.486C17.9312 28.94 18.4978 30.307 19.526 31.3352C23.2018 35.0113 27.2103 38.2017 28.3463 39.0893C29.4824 38.202 33.4909 35.0113 37.1667 31.3355C39.2893 29.2134 39.2893 25.7592 37.1672 23.6361C36.139 22.6078 34.7715 22.0418 33.3175 22.0418C31.8635 22.0418 30.496 22.6078 29.4678 23.6361C29.2139 23.8905 28.9822 24.1732 28.7796 24.4771C28.5864 24.7669 28.1063 24.7669 27.9131 24.4771C27.7108 24.173 27.4788 23.8902 27.2249 23.6361C26.1966 22.6076 24.8297 22.0415 23.3757 22.0415Z" fill="black" stroke="black" stroke-width="0.5"/>
<mask id="path-3-inside-1" fill="white">
<rect x="31.6111" y="30.5273" width="19.4628" height="19.4628" rx="1.29888"/>
</mask>
<rect x="31.6111" y="30.5273" width="19.4628" height="19.4628" rx="1.29888" fill="#F9F9F9" stroke="black" stroke-width="3" mask="url(#path-3-inside-1)"/>
<circle cx="54.7644" cy="49.7822" r="8.98141" fill="white" stroke="black" stroke-width="1.5"/>
</svg>
