<svg width="80" height="80" viewBox="0 0 80 80" fill="none" xmlns="http://www.w3.org/2000/svg">
<circle cx="40" cy="40" r="39.2205" stroke="black" stroke-width="1.55906"/>
<path d="M35.8856 52.2794V19.6389C35.8856 19.2084 35.5366 18.8594 35.106 18.8594H25.3508C24.9203 18.8594 24.5713 19.2084 24.5713 19.6389V61.2381V61.2381C24.5713 61.2648 24.5929 61.2864 24.6196 61.2864H35.8373C35.864 61.2864 35.8856 61.2648 35.8856 61.2381V61.2381" stroke="black" stroke-width="1.55906" stroke-miterlimit="10"/>
<path d="M25.5999 61.2859L35.3713 51.9727H55.4284V61.2859H25.5999Z" stroke="black" stroke-width="1.55906" stroke-miterlimit="10" stroke-linecap="round" stroke-linejoin="round"/>
<path d="M24.6848 23.4922H26.4564" stroke="black" stroke-width="1.55906" stroke-miterlimit="10" stroke-linecap="round"/>
<path d="M24.6848 30.5156H26.4564" stroke="black" stroke-width="1.55906" stroke-miterlimit="10" stroke-linecap="round"/>
<path d="M24.6851 53.6992H26.4567" stroke="black" stroke-width="1.55906" stroke-miterlimit="10" stroke-linecap="round"/>
<path d="M24.6848 47.6484H26.4564" stroke="black" stroke-width="1.55906" stroke-miterlimit="10" stroke-linecap="round"/>
<path d="M24.6848 41.6211H26.4564" stroke="black" stroke-width="1.55906" stroke-miterlimit="10" stroke-linecap="round"/>
<path d="M24.6851 35.5703H26.4567" stroke="black" stroke-width="1.55906" stroke-miterlimit="10" stroke-linecap="round"/>
</svg>
