<svg width="80" height="80" viewBox="0 0 80 80" fill="none" xmlns="http://www.w3.org/2000/svg">
<circle cx="40" cy="40" r="39.2205" stroke="black" stroke-width="1.55906"/>
<path d="M56.2144 17.7148H50.2144C49.8165 17.7148 49.435 17.8729 49.1537 18.1542C48.8724 18.4355 48.7144 18.817 48.7144 19.2148C48.7144 19.6127 48.8724 19.9942 49.1537 20.2755C49.435 20.5568 49.8165 20.7148 50.2144 20.7148H54.7144V59.7148H24.7144V20.7148H29.2144C29.6122 20.7148 29.9937 20.5568 30.275 20.2755C30.5563 19.9942 30.7144 19.6127 30.7144 19.2148C30.7144 18.817 30.5563 18.4355 30.275 18.1542C29.9937 17.8729 29.6122 17.7148 29.2144 17.7148H23.2144C22.8165 17.7148 22.435 17.8729 22.1537 18.1542C21.8724 18.4355 21.7144 18.817 21.7144 19.2148V61.2148C21.7144 61.6127 21.8724 61.9942 22.1537 62.2755C22.435 62.5568 22.8165 62.7148 23.2144 62.7148H56.2144C56.6122 62.7148 56.9937 62.5568 57.275 62.2755C57.5563 61.9942 57.7144 61.6127 57.7144 61.2148V19.2148C57.7144 18.817 57.5563 18.4355 57.275 18.1542C56.9937 17.8729 56.6122 17.7148 56.2144 17.7148Z" fill="black" stroke="white" stroke-width="1.16929" stroke-linecap="round" stroke-linejoin="bevel"/>
<path d="M33.7146 26.7148H45.7146C46.1124 26.7148 46.494 26.5568 46.7753 26.2755C47.0566 25.9942 47.2146 25.6127 47.2146 25.2148V19.2148C47.2146 18.817 47.0566 18.4355 46.7753 18.1542C46.494 17.8729 46.1124 17.7148 45.7146 17.7148H33.7146C33.3168 17.7148 32.9352 17.8729 32.6539 18.1542C32.3726 18.4355 32.2146 18.817 32.2146 19.2148V25.2148C32.2146 25.6127 32.3726 25.9942 32.6539 26.2755C32.9352 26.5568 33.3168 26.7148 33.7146 26.7148ZM35.2146 20.7148H44.2146V23.7148H35.2146V20.7148Z" fill="black" stroke="white" stroke-width="1.16929" stroke-linecap="round" stroke-linejoin="bevel"/>
<path d="M33.7146 50.7148C34.1124 50.7148 34.494 50.5568 34.7753 50.2755C35.0566 49.9942 35.2146 49.6127 35.2146 49.2148V43.8298L39.8496 48.4648L37.1496 51.1498C37.009 51.2893 36.8974 51.4552 36.8213 51.638C36.7451 51.8208 36.7059 52.0168 36.7059 52.2148C36.7059 52.4129 36.7451 52.6089 36.8213 52.7917C36.8974 52.9745 37.009 53.1404 37.1496 53.2798C37.289 53.4204 37.4549 53.532 37.6377 53.6082C37.8205 53.6843 38.0166 53.7235 38.2146 53.7235C38.4126 53.7235 38.6087 53.6843 38.7915 53.6082C38.9743 53.532 39.1402 53.4204 39.2796 53.2798L41.9646 50.5798L44.6496 53.2798C44.789 53.4204 44.9549 53.532 45.1377 53.6082C45.3205 53.6843 45.5166 53.7235 45.7146 53.7235C45.9126 53.7235 46.1087 53.6843 46.2915 53.6082C46.4743 53.532 46.6402 53.4204 46.7796 53.2798C46.9202 53.1404 47.0318 52.9745 47.1079 52.7917C47.1841 52.6089 47.2233 52.4129 47.2233 52.2148C47.2233 52.0168 47.1841 51.8208 47.1079 51.638C47.0318 51.4552 46.9202 51.2893 46.7796 51.1498L44.0796 48.4648L46.7796 45.7798C47.0621 45.4974 47.2207 45.1143 47.2207 44.7148C47.2207 44.3154 47.0621 43.9323 46.7796 43.6498C46.4971 43.3674 46.1141 43.2087 45.7146 43.2087C45.3151 43.2087 44.9321 43.3674 44.6496 43.6498L41.9646 46.3498L37.3296 41.7148H38.2146C39.8059 41.7148 41.332 41.0827 42.4572 39.9575C43.5825 38.8323 44.2146 37.3061 44.2146 35.7148C44.2146 34.1235 43.5825 32.5974 42.4572 31.4722C41.332 30.347 39.8059 29.7148 38.2146 29.7148H33.7146C33.3168 29.7148 32.9352 29.8729 32.6539 30.1542C32.3726 30.4355 32.2146 30.817 32.2146 31.2148V49.2148C32.2146 49.6127 32.3726 49.9942 32.6539 50.2755C32.9352 50.5568 33.3168 50.7148 33.7146 50.7148ZM35.2146 32.7148H38.2146C39.0102 32.7148 39.7733 33.0309 40.3359 33.5935C40.8985 34.1561 41.2146 34.9192 41.2146 35.7148C41.2146 36.5105 40.8985 37.2736 40.3359 37.8362C39.7733 38.3988 39.0102 38.7148 38.2146 38.7148H35.2146V32.7148Z" fill="black" stroke="#F9F9F9" stroke-width="1.16929" stroke-linecap="round"/>
</svg>
