<svg width="24" height="22" fill="none" xmlns="http://www.w3.org/2000/svg"><path d="M4.9 13.2V8.4c0-3.9 3.2-7.1 7.1-7.1 3.9 0 7.1 3.2 7.1 7.1v4.7m-4.3 6.8c2.6-1.1 4.3-3.6 4.3-6.6m0-5.5h1.4c1.1 0 2 .7 2 1.6v2.1c0 .9-.9 1.6-2 1.6h-1.4V7.8zM4.9 13.2H3.5c-1.1 0-2-.7-2-1.6V9.4c0-.9.9-1.6 2-1.6h1.4v5.4z" stroke="#d39d4e" stroke-width="2" stroke-miterlimit="10" stroke-linecap="round" stroke-linejoin="round"/><path d="M14.8 20.7a.8.8 0 100-1.6.8.8 0 000 1.6z" stroke="#d39d4e" stroke-width="2" stroke-miterlimit="10" stroke-linecap="round" stroke-linejoin="round"/></svg>