<svg width="24" height="25" fill="none" xmlns="http://www.w3.org/2000/svg"><path d="M11.789 21.512l.381-.924-.381.924zm.35 0l-.38-.924.38.924zM20 9.898h1V9.88l-1 .017zm-.067-3.933l-1 .017 1-.017zm-.739-.852l.215-.977-.215.977zM4.738 5.111l-.215-.976.215.977zm7.003-1.54l.214.976-.214-.976zm.443 0l-.215.976.215-.976zm-.659-.977l-7.002 1.54.43 1.954 7.002-1.54-.43-1.954zM3 5.978v3.926h2V5.978H3zm0 3.926c0 5.666 3.158 10.37 8.408 12.533l.762-1.85C7.666 18.733 5 14.758 5 9.905H3zm9.52 12.533C17.81 20.258 21 15.558 21 9.897h-2c0 4.835-2.687 8.814-7.242 10.69l.762 1.85zM21 9.88l-.068-3.933-2 .034L19 9.915l2-.034zm-1.59-5.745l-7.011-1.542-.43 1.953 7.01 1.543.43-1.954zm1.522 1.812c-.015-.918-.691-1.629-1.523-1.812l-.43 1.954c.007.001 0 .001-.014-.014a.15.15 0 01-.032-.094l2-.034zm-9.524 16.489c.356.146.757.146 1.112 0l-.762-1.85a.538.538 0 01.412 0l-.762 1.85zM4.523 4.135C3.681 4.32 3 5.047 3 5.978h2a.15.15 0 01-.032.096c-.013.016-.022.016-.015.014l-.43-1.953zm7.432.412h.014l.43-1.953a2.034 2.034 0 00-.873 0l.43 1.953z" fill="#D39D4E"/><path d="M15 11.547H9m3-3v6" stroke="#D39D4E" stroke-width="2" stroke-linecap="round"/></svg>