<svg width="88" height="20" fill="none" xmlns="http://www.w3.org/2000/svg"><path d="M10 0l2.245 6.91h7.266l-5.878 4.27 2.245 6.91L10 13.82l-5.878 4.27 2.245-6.91L.49 6.91h7.266L10 0zm34 0l2.245 6.91h7.266l-5.878 4.27 2.245 6.91L44 13.82l-5.878 4.27 2.245-6.91-5.878-4.27h7.266L44 0z" fill="#F5C245"/><path d="M27 0l2.245 6.91h7.266l-5.878 4.27 2.245 6.91L27 13.82l-5.878 4.27 2.245-6.91-5.878-4.27h7.266L27 0zm34 0l2.245 6.91h7.266l-5.878 4.27 2.245 6.91L61 13.82l-5.878 4.27 2.245-6.91-5.878-4.27h7.266L61 0z" fill="#F5C245"/><mask id="a" style="mask-type:alpha" maskUnits="userSpaceOnUse" x="68" y="0" width="20" height="19"><path d="M78 0l2.245 6.91h7.266l-5.878 4.27 2.245 6.91L78 13.82l-5.878 4.27 2.245-6.91-5.878-4.27h7.266L78 0z" fill="#F5C245"/></mask><g mask="url(#a)"><path fill="#F5C245" d="M67-2h24v22H67z"/><path fill="#999" d="M78-2h13v22H78z"/></g></svg>