<svg width="101" height="19" fill="none" xmlns="http://www.w3.org/2000/svg"><path d="M19.172 7.648c0-1.482 1.565-2.74 3.394-2.74 1.737 0 3.513.794 3.593 2.899h-2.294c-.04-.689-.715-.94-1.246-.94-.596 0-1.166.212-1.166.9 0 .37.437.635.967.768l1.538.37c2.135.556 2.413 2.025 2.413 2.753 0 1.866-1.856 2.833-3.765 2.833-1.816 0-3.672-1.099-3.712-3.098h2.254c.053.649.808 1.205 1.697 1.165.676-.013 1.206-.397 1.206-.926.013-.477-.331-.715-1.008-.874l-1.26-.317c-2.4-.623-2.61-1.708-2.61-2.793h-.001zM28.625.104c.835 0 1.525.635 1.525 1.442 0 .834-.69 1.456-1.525 1.456-.848 0-1.564-.635-1.564-1.456 0-.82.716-1.442 1.564-1.442zm1.18 14.201h-2.386V5.106h2.386v9.199zm4.998-9.198h1.949v1.932h-1.95v7.267h-2.385V7.038h-1.684V5.107h1.684V1.6h2.386v3.507zm11.415 5.4H39.19c.16 1.217 1.18 1.972 2.546 1.972.928 0 1.869-.397 2.306-1.178.57.317 1.247.675 1.83.98-.835 1.574-2.612 2.223-4.31 2.223-2.624 0-4.772-1.933-4.772-4.831 0-2.899 2.148-4.765 4.773-4.765 2.625 0 4.68 1.866 4.68 4.765.013.238-.013.622-.026.834zM43.91 8.866c-.172-1.258-1.127-1.946-2.307-1.946-1.26 0-2.254.715-2.426 1.946h4.733zm1.062 7.834h1.166c1.167 0 1.38-.94 1.366-1.733v-9.86h2.426v9.82c0 2.382-.875 3.984-3.434 3.984h-1.524V16.7zM48.71.105c.875 0 1.538.635 1.538 1.442 0 .834-.676 1.456-1.538 1.456-.835 0-1.538-.635-1.538-1.456-.013-.82.703-1.442 1.538-1.442zm9.85 13.022c-.596.94-1.948 1.364-2.863 1.364-2.426 0-4.693-1.853-4.693-4.792 0-2.951 2.267-4.79 4.693-4.79.835 0 2.188.317 2.864 1.336V5.107h2.413v9.198H58.56v-1.178zm-2.531-.94c1.299 0 2.532-.9 2.532-2.488 0-1.601-1.26-2.488-2.532-2.488-1.326 0-2.546.98-2.546 2.488 0 1.483 1.22 2.489 2.546 2.489v-.001zm6.177 2.118V.104h2.413v6.22c.49-.926 1.658-1.416 2.877-1.416 2.427 0 4.52 1.866 4.52 4.804 0 2.912-2.107 4.792-4.52 4.792-1.206 0-2.386-.517-2.877-1.443v1.244h-2.413zm4.893-2.104c1.339 0 2.426-1.006 2.426-2.528 0-1.496-1.087-2.489-2.426-2.489-1.247 0-2.453.914-2.453 2.489.013 1.548 1.153 2.528 2.453 2.528zm5.912 2.104V.104h2.413v6.22c.49-.926 1.657-1.416 2.877-1.416 2.426 0 4.52 1.866 4.52 4.804 0 2.912-2.107 4.792-4.52 4.792-1.206 0-2.386-.517-2.877-1.443v1.244H73.01zm4.892-2.104c1.34 0 2.426-1.006 2.426-2.528 0-1.496-1.087-2.489-2.426-2.489-1.246 0-2.452.914-2.452 2.489 0 1.548 1.153 2.528 2.452 2.528zm15.26-1.694h-7.027c.16 1.217 1.18 1.972 2.546 1.972.928 0 1.87-.397 2.307-1.178.57.317 1.246.675 1.83.98-.836 1.574-2.612 2.223-4.31 2.223-2.624 0-4.772-1.933-4.772-4.831 0-2.899 2.148-4.765 4.773-4.765 2.624 0 4.68 1.866 4.68 4.765.013.238 0 .622-.027.834zm-2.307-1.641C90.684 7.608 89.73 6.92 88.55 6.92c-1.26 0-2.254.715-2.426 1.946h4.733-.001zm5.9 5.439h-2.413V5.107h2.413v2.17c.477-1.68 1.564-2.369 2.612-2.369.649 0 1.14.133 1.524.331l-.411 2.17c-.57-.25-1.166-.25-1.405-.25-1.644 0-2.307 1.455-2.307 3.904v3.242h-.013z" fill="#6F6F6F"/><path d="M13.193 11.578A7.087 7.087 0 0014.61 7.29c0-3.97-3.222-7.2-7.211-7.2C3.422.09.187 3.306.187 7.29c0 3.97 3.222 7.187 7.213 7.187h8.697l-2.905-2.899z" fill="#F77100"/><path d="M11.563 6.27l-.438.424-1.418 1.377c.013.053.013.106.026.158l.41 2.423a.312.312 0 01-.145.278.324.324 0 01-.291.013c-.12-.066-.252-.133-.372-.199l-1.193-.635c-.252-.132-.49-.265-.742-.397-.24.132-.49.265-.73.384l-1.193.635c-.12.066-.252.132-.37.199a.257.257 0 01-.133.04.268.268 0 01-.146-.04.312.312 0 01-.146-.278v-.027l.41-2.409c.014-.053.014-.106.027-.159L3.7 6.681l-.438-.424a.29.29 0 01-.08-.317.304.304 0 01.253-.199c.185-.026.358-.053.543-.08l1.79-.264c.08-.013.146-.026.225-.026l.08-.16c.026-.065.066-.118.093-.184l.252-.517c.092-.185.185-.37.265-.556.146-.304.305-.608.45-.913a.31.31 0 01.279-.172c.106 0 .212.066.265.172.16.305.305.609.45.913.094.186.186.371.266.556l.252.517c.026.066.066.119.093.185l.08.159c.079.013.145.026.225.026l1.79.265c.185.026.357.053.543.08a.3.3 0 01.252.198.28.28 0 01-.066.33z" fill="#fff"/></svg>